<?xml version="1.0" encoding="utf-8"?>
<!-- Generator: Adobe Illustrator 26.0.1, SVG Export Plug-In . SVG Version: 6.00 Build 0)  -->
<svg version="1.1" id="Layer_1" xmlns="http://www.w3.org/2000/svg" xmlns:xlink="http://www.w3.org/1999/xlink" x="0px" y="0px"
	 viewBox="0 0 1920 1080" style="enable-background:new 0 0 1920 1080;" xml:space="preserve">
<style type="text/css">
	.st0{fill:#2563EB;}
</style>
<rect x="-1541.47" y="505.3" class="st0" width="1080" height="1080"/>
<g>
	<g>
		<path class="st0" d="M139.9,468.02c6.01-0.08,12.6,2.73,17.81,8.01c2.98,3.02,5.13,6.94,7.31,10.65
			c3.88,6.63,7.5,13.42,11.23,20.14c4.11,7.41,8.2,14.82,12.34,22.22c2.64,4.73,5.36,9.41,8,14.14c3.37,6.04,6.68,12.11,10.05,18.15
			c1.85,3.33,3.98,6.52,5.6,9.96c3.18,6.73,4,13.74,1.71,20.99c-1.75,5.52-4.82,10.06-9.32,13.74c-7.02,5.75-14.99,7.38-23.71,5.67
			c-7.25-1.42-12.86-5.49-17.21-11.35c-1.73-2.33-3.15-4.89-4.88-7.22c-3.16-4.28-7.65-6.76-12.72-7.53
			c-4.51-0.68-9.23-0.81-13.76-0.3c-6.8,0.75-12.46,4.07-16.6,9.68c-2.3,3.11-4.26,6.57-6.99,9.24c-7.94,7.78-17.64,9.97-28.17,6.85
			c-8.86-2.63-14.91-8.68-18.19-17.44c-2.81-7.5-2.22-14.85,1.11-21.91c2.58-5.48,6.77-9.63,12.19-12.56
			c8.07-4.37,16.32-4.37,24.57-1.04c5.51,2.22,9.53,6.38,13.06,11.18c4.12,5.6,10.07,8.54,16.91,7.75
			c9.7-1.12,14.45-10.65,9.54-19.56c-5.36-9.74-10.84-19.41-16.27-29.11c-3.47-6.2-6.91-12.42-10.43-18.59
			c-3.27-5.75-3.78-11.92-2.91-18.29c0.92-6.7,4.21-12.12,9.29-16.54C125.05,470.09,131.53,467.85,139.9,468.02z"/>
		<path class="st0" d="M341.56,612.43h-70.18c-11.94,0-22.95-6.44-28.81-16.84l-6.4-11.36l-41.73-74.05
			c-10.62-18.85,3-42.17,24.64-42.17h0c10.21,0,19.63,5.5,24.64,14.4l43.46,77.13c1.25,2.22,3.61,3.6,6.16,3.6l0,0
			c5.41,0,8.81-5.83,6.16-10.54l-23.9-42.42c-10.62-18.85,3-42.17,24.64-42.17h0c10.21,0,19.63,5.5,24.64,14.4l45.48,80.73l0,0
			C382.78,585.18,366.85,612.43,341.56,612.43z"/>
	</g>
	<g>
		<path class="st0" d="M511.32,594.79h-58.74l-5.5,17.34H393.5l52.04-144.27h72.82l52.21,144.27h-53.76L511.32,594.79z
			 M499.13,556.49l-12.71-39.85h-8.93l-12.71,39.85H499.13z"/>
		<path class="st0" d="M679.27,612.13l-18.21-35.38h-32.63v35.38h-51.87V467.87h84.84c40.53,0,63.55,16.83,63.55,56.33
			c0,18.89-8.24,32.63-19.75,41.22l25.08,46.71H679.27z M628.44,538.11h29.2c10.3,0,15.28-5.15,15.28-13.57s-4.98-13.57-15.28-13.57
			h-29.2V538.11z"/>
		<path class="st0" d="M732.32,540c0-46.54,32.12-76.94,82.44-76.94c50.49,0,82.61,30.4,82.61,76.94s-32.12,76.94-82.61,76.94
			C764.44,616.94,732.32,586.54,732.32,540z M845.68,540c0-20.95-14.26-32.12-30.92-32.12c-16.49,0-30.92,11.17-30.92,32.12
			c0,20.95,14.43,32.12,30.92,32.12C831.42,572.12,845.68,560.95,845.68,540z"/>
		<path class="st0" d="M906.11,548.24v-80.38h52.38v79.18c0,16.15,6.7,26.45,24.04,26.45c17.35,0,24.39-10.3,24.39-26.45v-79.18
			h52.04v80.03c0,47.75-25.08,69.04-76.43,69.04C931.18,616.94,906.11,595.65,906.11,548.24z"/>
		<path class="st0" d="M1070.11,467.87h59.43l41.56,71.62h4.81v-71.62h50.67v144.27h-58.22l-42.94-71.62h-4.64v71.62h-50.67V467.87z
			"/>
		<path class="st0" d="M1392.28,540c0,41.57-20.44,72.13-80.04,72.13h-74.54V467.87h74.54
			C1371.85,467.87,1392.28,498.26,1392.28,540z M1340.07,540c0-21.64-12.54-28.68-27.83-28.68h-22.32l-0.17,57.36h22.5
			C1327.53,568.68,1340.07,561.47,1340.07,540z"/>
		<path class="st0" d="M1486.39,567.82v44.31h-52.04v-44.83l-58.74-99.44h54.62l28.34,50.84h3.95l28.34-50.84h54.45L1486.39,567.82z
			"/>
		<path class="st0" d="M1532.74,540c0-46.54,32.12-76.94,82.44-76.94c50.49,0,82.61,30.4,82.61,76.94s-32.12,76.94-82.61,76.94
			C1564.85,616.94,1532.74,586.54,1532.74,540z M1646.09,540c0-20.95-14.26-32.12-30.91-32.12c-16.49,0-30.92,11.17-30.92,32.12
			c0,20.95,14.43,32.12,30.92,32.12C1631.83,572.12,1646.09,560.95,1646.09,540z"/>
		<path class="st0" d="M1706.52,548.24v-80.38h52.38v79.18c0,16.15,6.7,26.45,24.05,26.45c17.34,0,24.39-10.3,24.39-26.45v-79.18
			h52.04v80.03c0,47.75-25.08,69.04-76.43,69.04C1731.6,616.94,1706.52,595.65,1706.52,548.24z"/>
	</g>
</g>
</svg>
