<?xml version="1.0" encoding="utf-8"?>
<!-- Generator: Adobe Illustrator 26.0.1, SVG Export Plug-In . SVG Version: 6.00 Build 0)  -->
<svg version="1.1" id="Layer_1" xmlns="http://www.w3.org/2000/svg" xmlns:xlink="http://www.w3.org/1999/xlink" x="0px" y="0px"
	 viewBox="0 0 1080 1080" style="enable-background:new 0 0 1080 1080;" xml:space="preserve">
<style type="text/css">
	.st0{fill:#2563EB;}
</style>
<g>
	<path class="st0" d="M312.74,328.93c17.56-0.24,36.83,7.97,52.05,23.42c8.71,8.84,15.01,20.28,21.37,31.14
		c11.35,19.39,21.93,39.23,32.83,58.88c12.01,21.65,23.99,43.33,36.06,64.95c7.72,13.82,15.67,27.52,23.38,41.35
		c9.85,17.65,19.53,35.39,29.37,53.04c5.42,9.73,11.64,19.06,16.38,29.1c9.3,19.68,11.69,40.17,5,61.35
		c-5.1,16.14-14.08,29.4-27.24,40.16c-20.54,16.8-43.82,21.57-69.32,16.59c-21.18-4.14-37.6-16.06-50.3-33.17
		c-5.05-6.81-9.21-14.28-14.25-21.11c-9.24-12.51-22.36-19.77-37.18-22.01c-13.18-1.99-26.97-2.36-40.21-0.89
		c-19.89,2.2-36.41,11.9-48.53,28.31c-6.72,9.09-12.46,19.2-20.44,27.02c-23.22,22.75-51.56,29.15-82.34,20.03
		c-25.91-7.68-43.58-25.38-53.17-50.99c-8.21-21.92-6.48-43.42,3.25-64.06c7.55-16.03,19.79-28.15,35.64-36.73
		c23.58-12.77,47.7-12.78,71.84-3.04c16.1,6.5,27.87,18.65,38.17,32.68c12.03,16.38,29.45,24.96,49.44,22.65
		c28.36-3.28,42.24-31.13,27.89-57.19c-15.67-28.46-31.69-56.74-47.56-85.09c-10.15-18.13-20.21-36.3-30.48-54.36
		c-9.56-16.8-11.04-34.86-8.5-53.46c2.68-19.6,12.29-35.42,27.15-48.35C269.3,334.98,288.26,328.44,312.74,328.93z"/>
	<path class="st0" d="M902.25,751.1H697.09c-34.9,0-67.09-18.81-84.21-49.22l-18.71-33.21L472.19,452.19
		c-31.06-55.12,8.77-123.27,72.04-123.27h0.01c29.85,0,57.38,16.09,72.04,42.1l127.04,225.47c3.66,6.5,10.54,10.52,18,10.52h0
		c15.81,0,25.76-17.03,18-30.8l-69.88-124.01c-31.06-55.12,8.77-123.28,72.03-123.28h0c29.85,0,57.38,16.09,72.04,42.1L986.46,607
		l0,0C1022.76,671.43,976.21,751.1,902.25,751.1z"/>
</g>
<rect x="-1297.38" y="305.38" class="st0" width="1080" height="1080"/>
</svg>
